PathFileType	4	(x/y/z)	S04_P20_T18.trc
DataRate	CameraRate	NumFrames	NumMarkers	Units	OrigDataRate	OrigDataStartFrame	OrigNumFrames
240	240	8	51	mm	240	182	363
Frame#	Time	Sternum			R.Acromium			L.Acromium			Top.Head			R.ASIS			L.ASIS			R.PSIS			L.PSIS			R.Great.Tro			L.Great.Tro			R.Iliac.Crest			L.Iliac.Crest			V.Sacral			R.Thigh.Upper.Post			R.Thigh.Lower.Ant			R.Thigh.Lower.Post			R.Thigh.Upper.Ant			R.Knee.Lat			R.Knee.Med			R.Shank.Upper.Post			R.Shank.Lower.Ant			R.Shank.Lower.Post			R.Shank.Upper.Ant			R.Ankle.Lat			R.Ankle.Med			R.Heel.Upper			R.Heel.Med			R.Heel.Lat			R.Toe.Lat			R.Toe.Med			R.Toe.Tip			L.Thigh.Upper.Post			L.Thigh.Lower.Ant			L.Thigh.Lower.Post			L.Thigh.Upper.Ant			L.Knee.Lat			L.Knee.Med			L.Shank.Upper.Post			L.Shank.Lower.Ant			L.Shank.Lower.Post			L.Shank.Upper.Ant			L.Ankle.Lat			L.Ankle.Med			L.Heel.Upper			L.Heel.Med			L.Heel.Lat			L.Toe.Lat			L.Toe.Med			L.Toe.Tip			Cervical.Spine			Back			
		X1	Y1	Z1	X2	Y2	Z2	X3	Y3	Z3	X4	Y4	Z4	X5	Y5	Z5	X6	Y6	Z6	X7	Y7	Z7	X8	Y8	Z8	X9	Y9	Z9	X10	Y10	Z10	X11	Y11	Z11	X12	Y12	Z12	X13	Y13	Z13	X14	Y14	Z14	X15	Y15	Z15	X16	Y16	Z16	X17	Y17	Z17	X18	Y18	Z18	X19	Y19	Z19	X20	Y20	Z20	X21	Y21	Z21	X22	Y22	Z22	X23	Y23	Z23	X24	Y24	Z24	X25	Y25	Z25	X26	Y26	Z26	X27	Y27	Z27	X28	Y28	Z28	X29	Y29	Z29	X30	Y30	Z30	X31	Y31	Z31	X32	Y32	Z32	X33	Y33	Z33	X34	Y34	Z34	X35	Y35	Z35	X36	Y36	Z36	X37	Y37	Z37	X38	Y38	Z38	X39	Y39	Z39	X40	Y40	Z40	X41	Y41	Z41	X42	Y42	Z42	X43	Y43	Z43	X44	Y44	Z44	X45	Y45	Z45	X46	Y46	Z46	X47	Y47	Z47	X48	Y48	Z48	X49	Y49	Z49	X50	Y50	Z50	X51	Y51	Z51	

182	0.75417	-346.24	1285.8	277.32	-459.11	1511.8	463.31	-487.3	1503.6	113.96	-449.6	1839.8	275.22	-382.13	1006	418.09	-391.07	1022.5	168.83	-598.67	1035.3	320.59	-591.38	1037.8	239.42	-466.97	923.51	478.81	-496.42	929.92	99.431	-469.09	1094.9	459.23	-490.77	1102.6	124.66	-614.48	993.94	280.82	-454.37	663.71	460.69	-376.24	585.72	423.7	-450.14	573.78	445.31	-371.52	694.35	447.77	-422.55	507.48	433.58	-451.94	502.93	302.75	-507.07	283.71	429.31	-446.74	204.11	381.6	-511.82	214.55	411.95	-444.44	273.32	406.97	-508.03	102.66	388.34	-488.14	115.68	299.41	-576.38	74.136	333.77	-566.6	43.981	303.14	-570.44	41.146	367.82	-400.6	38.885	418	-362.59	40.547	298.32	-301.26	59.156	346.9	-421.34	694.44	105.77	-309.51	635.84	100.49	-378.39	615.85	115.7	-356.91	712.65	89.016	-321.02	544.32	113.61	-298.1	530.03	243.32	-481.84	445.52	139.88	-474.54	335.81	124.07	-519.79	377.77	143.69	-437	402.99	119.02	-579.37	222.81	145.52	-557.7	223.86	236.48	-653.2	239.92	203.07	-658.9	215.68	237.29	-670.44	216.94	176	-534.88	104.64	115.94	-488.86	89.219	224.05	-443.63	67.987	168.83	-522.34	1561.1	296.66	-605.8	1304.4	277.64
183	0.75833	-341.14	1286.2	277.15	-453.38	1512.2	463.41	-482.61	1503.9	114.16	-444.22	1840.1	275.22	-377.24	1006	418.35	-385.92	1023.1	169.07	-593.52	1035.7	320.39	-586.24	1038.3	239.27	-462.4	923.65	478.73	-490.89	930.63	99.251	-463.9	1095.2	459.31	-485.76	1103.1	124.73	-609.3	994.41	280.59	-451.83	663.9	460.71	-374.27	585.25	423.87	-448.26	573.91	445.47	-368.72	693.86	447.88	-421.32	507.32	433.77	-450.5	502.94	302.83	-506.61	283.88	429.25	-446.37	204.1	381.72	-511.54	214.74	411.82	-443.92	273.29	407.11	-507.88	102.79	388.24	-488.07	115.77	299.33	-576.4	74.298	333.68	-566.71	44.09	303.06	-570.39	41.31	367.78	-400.57	38.871	418.02	-362.52	40.42	298.31	-301.19	58.958	346.93	-414.24	695.53	105.22	-301.96	637.67	100.67	-370.83	617.19	115.25	-349.8	714.19	89.009	-313	545.77	113.85	-290.5	531.79	243.39	-472.22	443.63	139.43	-462.68	334.08	123.99	-508.82	375.15	143.34	-426.51	401.98	118.85	-565.1	218.84	145.29	-543.82	220.51	236.31	-639.55	234.26	202.55	-644.76	209.89	236.76	-656.14	210.9	175.46	-517.7	101.77	115.94	-471.77	87.507	224.22	-425.91	67.271	169.21	-517.07	1561.4	296.96	-600.6	1304.8	278.23
184	0.7625	-336.02	1286.5	276.98	-447.65	1512.6	463.51	-477.9	1504.2	114.36	-438.86	1840.4	275.19	-372.35	1006	418.6	-380.75	1023.6	169.29	-588.38	1036.1	320.2	-581.1	1038.7	239.11	-457.83	923.75	478.66	-485.35	931.28	99.075	-458.71	1095.4	459.37	-480.7	1103.5	124.79	-604.12	994.82	280.35	-449.29	664.07	460.73	-372.32	584.78	424.05	-446.39	574.03	445.64	-365.94	693.36	447.98	-420.09	507.16	433.96	-449.05	502.94	302.91	-506.15	284.07	429.18	-446	204.09	381.85	-511.27	214.92	411.68	-443.41	273.27	407.25	-507.74	102.91	388.13	-488.02	115.88	299.26	-576.41	74.461	333.58	-566.8	44.196	302.97	-570.33	41.479	367.73	-400.54	38.856	418.03	-362.45	40.293	298.3	-301.13	58.758	346.96	-407.22	696.57	104.7	-294.53	639.41	100.83	-363.4	618.46	114.81	-342.78	715.66	89.004	-305.12	547.13	114.06	-283.04	533.44	243.43	-462.63	441.6	138.9	-450.77	332.25	123.88	-497.82	372.39	142.93	-416.02	400.86	118.65	-550.7	214.78	145.02	-529.81	217.07	236.1	-625.72	228.47	202	-630.43	203.99	236.21	-641.64	204.73	174.89	-500.37	98.868	115.93	-454.53	85.805	224.39	-408.06	66.585	169.57	-511.79	1561.7	297.25	-595.39	1305.1	278.81
185	0.76667	-330.9	1286.8	276.81	-441.91	1513	463.59	-473.19	1504.5	114.54	-433.51	1840.6	275.15	-367.46	1006	418.83	-375.58	1024	169.51	-583.24	1036.4	319.99	-575.96	1039.1	238.96	-453.27	923.82	478.58	-479.83	931.87	98.904	-453.5	1095.6	459.43	-475.61	1103.9	124.85	-598.95	995.17	280.12	-446.77	664.23	460.74	-370.37	584.3	424.22	-444.53	574.14	445.8	-363.17	692.85	448.08	-418.88	507	434.15	-447.6	502.95	302.98	-505.7	284.25	429.11	-445.64	204.08	381.97	-510.99	215.11	411.52	-442.91	273.24	407.4	-507.59	103.03	388.02	-487.98	115.99	299.18	-576.42	74.627	333.48	-566.89	44.298	302.87	-570.27	41.651	367.68	-400.52	38.841	418.04	-362.38	40.169	298.28	-301.06	58.553	346.99	-400.3	697.55	104.2	-287.23	641.04	101	-356.09	619.66	114.39	-335.86	717.04	89.001	-297.38	548.41	114.25	-275.72	535	243.44	-453.06	439.42	138.3	-438.83	330.33	123.75	-486.79	369.5	142.47	-405.53	399.64	118.42	-536.15	210.64	144.73	-515.66	213.54	235.87	-611.72	222.56	201.42	-615.92	197.99	235.64	-626.94	198.46	174.3	-482.91	95.955	115.9	-437.16	84.125	224.54	-390.11	65.941	169.91	-506.51	1562	297.53	-590.17	1305.3	279.37
186	0.77083	-325.76	1287.1	276.63	-436.16	1513.3	463.66	-468.45	1504.6	114.71	-428.17	1840.8	275.1	-362.56	1005.9	419.05	-370.41	1024.4	169.71	-578.11	1036.6	319.79	-570.82	1039.5	238.8	-448.71	923.85	478.49	-474.32	932.4	98.737	-448.3	1095.8	459.48	-470.49	1104.2	124.89	-593.78	995.47	279.88	-444.25	664.38	460.74	-368.43	583.83	424.39	-442.67	574.25	445.95	-360.42	692.34	448.17	-417.67	506.84	434.34	-446.14	502.96	303.04	-505.25	284.44	429.02	-445.28	204.08	382.09	-510.72	215.29	411.37	-442.41	273.21	407.54	-507.44	103.15	387.9	-487.97	116.11	299.11	-576.42	74.794	333.36	-566.96	44.395	302.78	-570.21	41.828	367.62	-400.49	38.826	418.05	-362.3	40.046	298.26	-300.99	58.344	347.02	-393.49	698.47	103.73	-280.07	642.57	101.15	-348.93	620.79	113.98	-329.05	718.33	89.002	-289.79	549.6	114.43	-268.54	536.45	243.43	-443.51	437.1	137.64	-426.85	328.32	123.6	-475.73	366.49	141.95	-395.06	398.31	118.15	-521.47	206.43	144.41	-501.39	209.94	235.6	-597.54	216.56	200.83	-601.22	191.91	235.06	-612.05	192.09	173.7	-465.31	93.047	115.86	-419.66	82.48	224.66	-372.05	65.352	170.21	-501.21	1562.2	297.79	-584.95	1305.5	279.93
187	0.775	-320.62	1287.3	276.45	-430.41	1513.5	463.73	-463.71	1504.8	114.87	-422.84	1840.9	275.02	-357.66	1005.7	419.26	-365.22	1024.7	169.91	-572.99	1036.9	319.58	-565.68	1039.7	238.64	-444.15	923.85	478.41	-468.81	932.87	98.572	-443.09	1095.8	459.51	-465.33	1104.5	124.92	-588.61	995.71	279.64	-441.72	664.52	460.73	-366.48	583.35	424.56	-440.8	574.35	446.09	-357.67	691.82	448.24	-416.46	506.68	434.52	-444.68	502.97	303.1	-504.8	284.63	428.92	-444.91	204.07	382.2	-510.44	215.48	411.2	-441.91	273.18	407.67	-507.28	103.27	387.78	-487.97	116.25	299.03	-576.41	74.959	333.25	-567	44.488	302.68	-570.15	42.009	367.56	-400.46	38.81	418.06	-362.23	39.928	298.24	-300.92	58.13	347.05	-386.79	699.33	103.3	-273.06	643.99	101.3	-341.9	621.82	113.58	-322.35	719.53	89.007	-282.35	550.68	114.59	-261.49	537.79	243.39	-433.98	434.66	136.92	-414.84	326.25	123.44	-464.63	363.37	141.4	-384.6	396.89	117.86	-506.66	202.17	144.06	-486.97	206.28	235.3	-583.19	210.47	200.21	-586.33	185.77	234.46	-596.97	185.65	173.09	-447.6	90.163	115.78	-402.05	80.879	224.76	-353.91	64.829	170.48	-495.91	1562.4	298.04	-579.73	1305.7	280.47
188	0.77917	-315.46	1287.4	276.26	-424.66	1513.7	463.79	-458.95	1504.9	115.03	-417.52	1841	274.94	-352.74	1005.6	419.44	-360.03	1025	170.09	-567.87	1037	319.38	-560.54	1039.9	238.48	-439.59	923.81	478.32	-463.32	933.29	98.41	-437.9	1095.9	459.54	-460.16	1104.7	124.94	-583.44	995.9	279.4	-439.2	664.65	460.72	-364.52	582.87	424.71	-438.92	574.45	446.23	-354.92	691.3	448.31	-415.24	506.52	434.7	-443.22	502.98	303.14	-504.35	284.83	428.82	-444.54	204.07	382.3	-510.15	215.67	411.03	-441.41	273.16	407.8	-507.12	103.39	387.65	-487.98	116.38	298.96	-576.38	75.122	333.13	-567.02	44.577	302.59	-570.08	42.195	367.5	-400.43	38.794	418.06	-362.16	39.813	298.22	-300.84	57.911	347.08	-380.2	700.11	102.9	-266.19	645.29	101.44	-335.03	622.77	113.21	-315.77	720.62	89.015	-275.06	551.67	114.73	-254.59	539.02	243.33	-424.46	432.08	136.15	-402.8	324.11	123.25	-453.5	360.14	140.8	-374.16	395.39	117.55	-491.72	197.88	143.67	-472.41	202.57	234.97	-568.67	204.32	199.58	-571.26	179.59	233.85	-581.69	179.16	172.46	-429.77	87.32	115.68	-384.33	79.335	224.82	-335.7	64.384	170.69	-490.59	1562.5	298.28	-574.5	1305.8	281
189	0.78333	-310.3	1287.5	276.07	-418.9	1513.8	463.83	-454.17	1504.9	115.17	-412.21	1841	274.83	-347.82	1005.4	419.62	-354.82	1025.2	170.27	-562.76	1037.1	319.18	-555.4	1040.1	238.32	-435.03	923.74	478.23	-457.84	933.65	98.25	-432.71	1095.9	459.56	-454.97	1104.9	124.96	-578.27	996.03	279.16	-436.67	664.76	460.7	-362.56	582.39	424.85	-437.02	574.55	446.35	-352.17	690.77	448.35	-414.02	506.36	434.86	-441.74	503	303.17	-503.88	285.03	428.71	-444.16	204.06	382.4	-509.85	215.86	410.85	-440.91	273.13	407.93	-506.95	103.51	387.52	-488	116.53	298.88	-576.34	75.28	333	-567.01	44.662	302.5	-570.01	42.384	367.43	-400.4	38.777	418.06	-362.08	39.703	298.19	-300.76	57.688	347.11	-373.73	700.83	102.54	-259.47	646.47	101.57	-328.3	623.63	112.86	-309.31	721.61	89.026	-267.93	552.56	114.85	-247.82	540.13	243.25	-414.96	429.4	135.35	-390.74	321.93	123.04	-442.34	356.82	140.18	-363.73	393.81	117.21	-476.65	193.56	143.26	-457.71	198.84	234.61	-553.97	198.13	198.93	-556	173.39	233.22	-566.22	172.64	171.82	-411.85	84.535	115.54	-366.52	77.858	224.85	-317.42	64.03	170.86	-485.27	1562.6	298.5	-569.27	1305.9	281.51
